<svg xmlns="http://www.w3.org/2000/svg" height="376.307" width="980.851">
  <defs>
    <clipPath id="a" clipPathUnits="userSpaceOnUse">
      <path d="M0 1080h1920V0H0z" />
    </clipPath>
  </defs>
  <path
    d="M503.255 266.537L441.223 121.64h-61.119L480.766 342.56h21.59l99.326-220.92H565.29zM647.337 342.514h54.038V121.64h-54.038z"
    fill="#2b2b2e"
  />
  <g
    clip-path="url(#a)"
    transform="matrix(1.33333 0 0 -1.33333 -753.608 945.676)"
  >
    <path
      d="M1070.972 703.278c-13.5 0-24.443-10.944-24.443-24.444 0-13.5 10.943-24.444 24.443-24.444 13.501 0 24.444 10.944 24.444 24.444 0 13.5-10.943 24.444-24.444 24.444M1246.526 621.401c-27.666 0-48.584-15.182-58.366-41.499l-1.35 38.124h-40.485V452.372h41.835v82.66c0 35.424 17.882 57.016 39.473 57.016 22.268 0 31.375-16.868 31.375-36.774V452.372h41.836v110.323c0 34.078-18.218 58.706-54.318 58.706M694.698 465.535c-50.641 0-79.684 40.737-79.684 111.767 0 71.267 29.043 112.14 79.684 112.14s79.684-40.873 79.684-112.14c0-34.284-7.065-62.538-20.432-81.709-13.709-19.664-34.197-30.058-59.252-30.058m92.092 205.937c-24.022 24.366-56.727 37.785-92.092 37.785-35.502 0-68.256-13.418-92.229-37.784-24.029-24.42-37.263-57.866-37.263-94.17 0-36.307 13.234-69.75 37.263-94.173 23.973-24.365 56.727-37.782 92.229-37.782 4.287 0 13.006.73 13.094.737.152.012 14.302 1.167 29.75 6.234 5.187 1.747 10.145 3.624 15.238 6.281 1.438.75 4.141 2.527 7.373 4.763l38.713-36.336 25.324 26.764-34.748 32.04c22.421 24.15 34.748 56.537 34.748 91.471 0 36.262-13.283 69.707-37.4 94.17"
      fill="#2b2b2e"
    />
  </g>
</svg>
